#!OML:ASF G:\ViconDB\ViconDB\414\test\team2\shane.ASF
:FULLY-SPECIFIED
:DEGREES
280
root 11.5244 16.9225 7.82904 -173.987 60.4074 -163.649
lowerback 8.18155 1.42252 2.69188
upperback 2.61989 2.23678 0.833512
thorax -1.80548 1.16298 -0.865721
lowerneck -15.3478 -3.12209 -6.35106
upperneck 23.7388 -3.60217 5.16265
head 10.3378 -1.45082 2.45356
rclavicle 2.05991e-014 -1.51076e-014
rhumerus -28.6468 5.83654 -90.7463
rradius 32.8859
rwrist 35.4296
rhand -29.2613 -11.4705
rfingers 7.12502
rthumb -2.60406 -41.4343
lclavicle 2.05991e-014 -1.51076e-014
lhumerus -38.3028 1.37175 81.6641
lradius 15.9655
lwrist -27.5165
lhand -37.3755 4.90964
lfingers 7.12502
lthumb -10.4369 34.6306
rfemur 5.80132 -15.6426 7.63428
rtibia 61.9808
rfoot -0.713159 2.24507
rtoes -10.9096
lfemur 0.910185 18.3809 -14.6316
ltibia 22.8345
lfoot -19.2605 -23.4239
ltoes -2.16401
281
root 11.6288 16.9281 7.75419 -174.462 59.1109 -163.899
lowerback 8.39564 1.17381 2.64113
upperback 2.68614 1.92281 1.0578
thorax -1.87567 1.00944 -0.581997
lowerneck -15.4912 -3.16965 -6.71156
upperneck 23.9696 -3.55953 5.16147
head 10.4552 -1.45888 2.52344
rclavicle -1.08487e-013 9.54166e-015
rhumerus -29.4267 5.4401 -90.0632
rradius 32.2348
rwrist 36.1191
rhand -29.0189 -11.4932
rfingers 7.12502
rthumb -2.36997 -41.4598
lclavicle -1.08487e-013 9.54166e-015
lhumerus -37.1233 0.391425 82.9733
lradius 16.9673
lwrist -26.9855
lhand -37.1348 5.4677
lfingers 7.12502
lthumb -10.2047 35.2002
rfemur 4.57835 -15.5603 8.06955
rtibia 62.5754
rfoot -1.57244 1.93878
rtoes -10.9573
lfemur 1.80326 17.4335 -14.5108
ltibia 22.1986
lfoot -19.2227 -23.8359
ltoes -2.08277
282
root 11.7387 16.9284 7.68148 -175.076 57.7017 -164.292
lowerback 8.53986 0.945433 2.61701
upperback 2.76021 1.63128 1.15948
thorax -1.89093 0.867687 -0.437965
lowerneck -15.6042 -3.20861 -7.02377
upperneck 24.2377 -3.5628 5.34642
head 10.5861 -1.45988 2.64777
rclavicle 4.90998e-014 -9.54166e-015
rhumerus -30.2519 4.58781 -89.4067
rradius 31.6512
rwrist 36.5164
rhand -28.9708 -11.466
rfingers 7.12502
rthumb -2.3235 -41.4331
lclavicle 4.90998e-014 -9.54166e-015
lhumerus -35.4774 0.369653 83.5387
lradius 17.1077
lwrist -28.0955
lhand -37.5605 5.93132
lfingers 7.12502
lthumb -10.6154 35.6432
rfemur 3.47283 -15.6407 8.45905
rtibia 62.9283
rfoot -2.71402 1.97265
rtoes -11.5757
lfemur 2.70937 16.4992 -14.4389
ltibia 21.6077
lfoot -19.2905 -24.3808
ltoes -2.033
283
root 11.8383 16.9239 7.61823 -175.756 56.0888 -164.759
lowerback 8.7923 0.63777 2.40031
upperback 2.85764 1.22639 1.32766
thorax -1.94862 0.670179 -0.106488
lowerneck -15.5962 -3.2761 -7.14149
upperneck 24.2343 -3.58334 5.19299
head 10.5853 -1.49822 2.60919
rclavicle -2.97183e-014 2.06736e-014
rhumerus -30.9828 3.80696 -88.6796
rradius 31.1369
rwrist 36.6869
rhand -28.6109 -11.2329
rfingers 7.12502
rthumb -1.9759 -41.2035
lclavicle -2.97183e-014 2.06736e-014
lhumerus -34.0982 -0.555695 84.5655
lradius 17.8148
lwrist -27.4857
lhand -37.8912 5.66013
lfingers 7.12502
lthumb -10.9344 35.3554
rfemur 2.42491 -15.7097 8.78817
rtibia 63.0841
rfoot -4.07394 1.89141
rtoes -11.0774
lfemur 3.53086 15.4413 -14.3726
ltibia 21.0979
lfoot -19.1044 -25.1018
ltoes -2.26343
284
root 11.9391 16.9179 7.55286 -176.517 54.6876 -165.387
lowerback 9.01615 0.404755 1.99362
upperback 2.93007 0.899787 1.46913
thorax -2.01207 0.510333 0.298951
lowerneck -15.6936 -3.33724 -7.38685
upperneck 24.4074 -3.60328 5.24198
head 10.6764 -1.51989 2.66878
rclavicle -1.48939e-013 1.59028e-015
rhumerus -31.8789 3.26254 -88.0324
rradius 30.7775
rwrist 36.7262
rhand -28.3949 -11.4141
rfingers 7.12502
rthumb -1.76727 -41.3865
lclavicle -1.48939e-013 1.59028e-015
lhumerus -32.5979 -0.399675 85.1859
lradius 18.3083
lwrist -28.18
lhand -38.3569 6.03128
lfingers 7.12502
lthumb -11.3835 35.7023
rfemur 1.27125 -15.594 9.02048
rtibia 63.0163
rfoot -5.32817 1.86287
rtoes -10.7147
lfemur 4.31486 14.6132 -14.5051
ltibia 20.6672
lfoot -19.4551 -25.651
ltoes -2.6452
285
root 12.0453 16.9077 7.48586 -177.043 53.3974 -165.532
lowerback 9.29985 0.208976 2.07211
upperback 3.11109 0.669751 1.53259
thorax -1.98323 0.403755 0.343229
lowerneck -16.0538 -3.42768 -7.51821
upperneck 24.7464 -3.6965 5.35219
head 10.8847 -1.55348 2.72287
rclavicle -6.21451e-014 -2.54444e-014
rhumerus -32.5836 2.1837 -87.3022
rradius 30.1561
rwrist 37.5432
rhand -28.4811 -11.3938
rfingers 7.12502
rthumb -1.85056 -41.3655
lclavicle -6.21451e-014 -2.54444e-014
lhumerus -31.1767 -1.98177 86.2634
lradius 19.2347
lwrist -26.714
lhand -38.3021 5.87835
lfingers 7.12502
lthumb -11.3307 35.5523
rfemur 0.297346 -15.2469 9.64704
rtibia 62.7199
rfoot -6.46068 1.5196
rtoes -10.604
lfemur 5.26334 13.8479 -14.2502
ltibia 20.262
lfoot -19.5794 -26.27
ltoes -2.33016
